<svg width="100" height="100" viewBox="0 0 100 100" fill="none" xmlns="http://www.w3.org/2000/svg">
<g clip-path="url(#clip0_67_148)">
<path d="M18.2594 0C8.1445 0 0 8.1445 0 18.2594V81.7407C0 91.8556 8.1445 100 18.2594 100H52.6657V60.9063H42.3282V46.8313H52.6657V34.8063C52.6657 25.3588 58.7736 16.6844 72.8438 16.6844C78.5406 16.6844 82.7532 17.2313 82.7532 17.2313L82.4219 30.3751C82.4219 30.3751 78.1256 30.3345 73.4375 30.3345C68.3636 30.3345 67.55 32.6723 67.55 36.5533V46.8314H82.825L82.1594 60.9064H67.55V100H81.7406C91.8555 100 100 91.8557 100 81.7408V18.2595C100 8.1446 91.8555 0.0001 81.7406 0.0001H18.2593L18.2594 0Z" fill="black"/>
</g>
<defs>
<clipPath id="clip0_67_148">
<rect width="100" height="100" fill="white"/>
</clipPath>
</defs>
</svg>
