<svg width="154" height="154" viewBox="0 0 154 154" fill="none" xmlns="http://www.w3.org/2000/svg">
<path d="M77 56.9529C65.9613 56.9529 56.9529 65.9613 56.9529 77C56.9529 88.0387 65.9613 97.0471 77 97.0471C88.0387 97.0471 97.0471 88.0387 97.0471 77C97.0471 65.9613 88.0387 56.9529 77 56.9529ZM137.126 77C137.126 68.6984 137.201 60.4721 136.735 52.1856C136.269 42.5606 134.073 34.0184 127.035 26.9801C119.982 19.9268 111.454 17.7461 101.829 17.2799C93.5279 16.8137 85.3015 16.8889 77.015 16.8889C68.7135 16.8889 60.4871 16.8137 52.2006 17.2799C42.5756 17.7461 34.0334 19.9418 26.9951 26.9801C19.9418 34.0334 17.7611 42.5606 17.2949 52.1856C16.8287 60.4871 16.9039 68.7135 16.9039 77C16.9039 85.2865 16.8287 93.5279 17.2949 101.814C17.7611 111.439 19.9568 119.982 26.9951 127.02C34.0484 134.073 42.5756 136.254 52.2006 136.72C60.5021 137.186 68.7285 137.111 77.015 137.111C85.3166 137.111 93.5429 137.186 101.829 136.72C111.454 136.254 119.997 134.058 127.035 127.02C134.088 119.967 136.269 111.439 136.735 101.814C137.216 93.5279 137.126 85.3016 137.126 77V77ZM77 107.845C59.9306 107.845 46.1549 94.0693 46.1549 77C46.1549 59.9307 59.9306 46.1549 77 46.1549C94.0693 46.1549 107.845 59.9307 107.845 77C107.845 94.0693 94.0693 107.845 77 107.845ZM109.108 52.0953C105.123 52.0953 101.905 48.877 101.905 44.8916C101.905 40.9063 105.123 37.6879 109.108 37.6879C113.094 37.6879 116.312 40.9063 116.312 44.8916C116.313 45.8379 116.128 46.7752 115.766 47.6498C115.405 48.5243 114.874 49.3189 114.205 49.9881C113.536 50.6572 112.741 51.1878 111.867 51.5494C110.992 51.911 110.055 52.0965 109.108 52.0953V52.0953Z" fill="black"/>
</svg>
