<svg width="110" height="110" viewBox="0 0 110 110" fill="none" xmlns="http://www.w3.org/2000/svg">
<g clip-path="url(#clip0_67_155)">
<path d="M21.567 0.0274658C9.71811 0.0274658 0.0205078 9.72485 0.0205078 21.5739V88.4364C0.0205078 100.285 9.71789 109.979 21.567 109.979H88.4295C100.278 109.979 109.972 100.285 109.972 88.4364V21.5739C109.972 9.72507 100.278 0.0274658 88.4295 0.0274658H21.567ZM26.9862 18.1717C32.6675 18.1717 36.1669 21.9014 36.275 26.804C36.275 31.5983 32.6673 35.4328 26.8763 35.4328H26.7698C21.1966 35.4328 17.5944 31.5986 17.5944 26.804C17.5944 21.9015 21.3056 18.1717 26.9861 18.1717H26.9862ZM75.945 41.0858C86.8712 41.0858 95.0619 48.2273 95.0619 63.5738V92.2232H78.4571V65.4946C78.4571 58.778 76.0539 54.1956 70.0447 54.1956C65.4573 54.1956 62.7229 57.2842 61.5224 60.2679C61.0838 61.3353 60.976 62.8261 60.976 64.3194V92.2232H44.3712C44.3712 92.2232 44.5891 46.9458 44.3712 42.2576H60.9794V49.3332C63.186 45.9287 67.133 41.0857 75.945 41.0857V41.0858ZM18.5739 42.2612H35.1787V92.2234H18.5739V42.2612V42.2612Z" fill="black"/>
</g>
<defs>
<clipPath id="clip0_67_155">
<rect width="110" height="110" fill="white"/>
</clipPath>
</defs>
</svg>
