<svg width="190" height="137" viewBox="0 0 190 137" fill="none" xmlns="http://www.w3.org/2000/svg">
<path d="M163.281 20.7812H26.7188C23.4346 20.7812 20.7812 23.4346 20.7812 26.7188V163.281C20.7812 166.565 23.4346 169.219 26.7188 169.219H163.281C166.565 169.219 169.219 166.565 169.219 163.281V26.7188C169.219 23.4346 166.565 20.7812 163.281 20.7812ZM134.948 74.5342C135.004 75.4063 135.004 76.3154 135.004 77.2061C135.004 104.444 114.26 135.82 76.3525 135.82C64.6631 135.82 53.8271 132.425 44.6982 126.58C46.3682 126.766 47.9639 126.84 49.6709 126.84C59.3193 126.84 68.1885 123.574 75.2578 118.045C66.2031 117.859 58.5957 111.922 55.998 103.758C59.1709 104.222 62.0283 104.222 65.2939 103.387C60.6316 102.44 56.441 99.9074 53.4341 96.2206C50.4271 92.5338 48.7893 87.9197 48.7988 83.1621V82.9023C51.5264 84.4424 54.7363 85.3887 58.0947 85.5186C55.2715 83.637 52.9562 81.0879 51.354 78.0972C49.7519 75.1066 48.9124 71.7668 48.9102 68.374C48.9102 64.5332 49.9121 61.0264 51.7119 57.9834C56.8869 64.3539 63.3444 69.5642 70.6649 73.2755C77.9853 76.9869 86.0048 79.1163 94.2022 79.5254C91.2891 65.5166 101.754 54.1797 114.334 54.1797C120.271 54.1797 125.615 56.666 129.382 60.6738C134.039 59.8018 138.492 58.0576 142.463 55.7197C140.923 60.4883 137.694 64.5146 133.408 67.0566C137.564 66.6113 141.572 65.4609 145.283 63.8467C142.481 67.9658 138.975 71.6211 134.948 74.5342V74.5342Z" fill="black"/>
</svg>
