<svg width="154" height="108" viewBox="0 0 154 108" fill="none" xmlns="http://www.w3.org/2000/svg">
<g clip-path="url(#clip0_67_152)">
<path d="M150.599 16.845C149.715 13.5891 147.992 10.6209 145.601 8.23577C143.21 5.85067 140.234 4.13197 136.97 3.2508C125.019 0 76.9217 0 76.9217 0C76.9217 0 28.8219 0.0983997 16.8713 3.3492C13.6069 4.23042 10.6309 5.94921 8.23974 8.33442C5.84853 10.7196 4.12552 13.688 3.24229 16.944C-0.372496 38.1228 -1.77474 70.3944 3.34155 90.726C4.22487 93.9819 5.94792 96.9501 8.33912 99.3352C10.7303 101.72 13.7062 103.439 16.9706 104.32C28.9212 107.571 77.0197 107.571 77.0197 107.571C77.0197 107.571 125.118 107.571 137.068 104.32C140.332 103.439 143.308 101.72 145.699 99.3354C148.091 96.9502 149.814 93.9819 150.697 90.726C154.51 69.5172 155.685 37.266 150.599 16.8456V16.845Z" fill="#FF0000"/>
<path d="M61.6125 76.836L101.513 53.7852L61.6125 30.7344V76.836Z" fill="white"/>
</g>
<defs>
<clipPath id="clip0_67_152">
<rect width="154" height="108" fill="white"/>
</clipPath>
</defs>
</svg>
